<svg width="26" height="29" viewBox="0 0 26 29" fill="none" xmlns="http://www.w3.org/2000/svg">
<path fill-rule="evenodd" clip-rule="evenodd" d="M20.89 4.99307H9.40039V0L25.7643 0V16.7624H20.89V4.99307Z" fill="#55B02E"/>
<path fill-rule="evenodd" clip-rule="evenodd" d="M11.9152 14.9285C11.1709 14.419 10.2958 14.1471 9.40057 14.1471V9.15405C11.2598 9.15405 13.0773 9.71881 14.6233 10.7769C16.1692 11.835 17.3741 13.3389 18.0856 15.0985C18.7971 16.8581 18.9832 18.7942 18.6205 20.6622C18.2578 22.5301 17.3625 24.2459 16.0478 25.5926C14.7331 26.9393 13.0581 27.8564 11.2345 28.228C9.41099 28.5996 7.52084 28.4089 5.80312 27.68C4.08539 26.9512 2.61722 25.7169 1.58427 24.1334C0.551327 22.5498 -3.54174e-06 20.6881 0 18.7835L4.87437 18.7835C4.87437 19.7005 5.13982 20.5969 5.63717 21.3594C6.13451 22.1218 6.84141 22.7161 7.66846 23.067C8.49552 23.418 9.40559 23.5098 10.2836 23.3309C11.1616 23.152 11.9681 22.7104 12.6011 22.062C13.2341 21.4136 13.6652 20.5874 13.8398 19.6881C14.0144 18.7887 13.9248 17.8565 13.5822 17.0093C13.2397 16.1621 12.6595 15.438 11.9152 14.9285Z" fill="#55B02E"/>
</svg>
